# xmcd
#
# Track frame offsets:
#	150
#	13560
#	23765
#	30501
#	42611
#	55307
#	63586
#	75517
#	86689
#	99129
#	107356
#	120408
#	139483
#	154313
#	166225
#	177272
#
# Disc length: 2580 seconds
#
# Revision: 0
# Processed by: cddbd v1.5.2PL0 Copyright (c) Steve Scherf et al.
# Submitted via: dBpowerAMP V4.0
#
DISCID=c30a1210
DTITLE=Various Artist - Cajun Classics Vol.1
DYEAR=2003
DGENRE=Cajun
TTITLE0=Arizona Smoke Revue - Battle Of New Orleans
TTITLE1=Arizona Smoke Revue - Earl's Breakdown
TTITLE2=Arizona Smoke Revue - Duelling Banjo's
TTITLE3=Arizona Smoke Revue - Black Mountain Rag
TTITLE4=Arizona Smoke Revue - Grandfather's Clock
TTITLE5=Arizona Smoke Revue - Old Rebel
TTITLE6=Blackwater Boys - Mule Skinner Blues
TTITLE7=Arizona Smoke Revue - Blackbird
TTITLE8=Arizona Smoke Revue - Orange Blossom Special
TTITLE9=Arizona Smoke Revue - Sailor's Hornpipe
TTITLE10=Blackwater Boys - My Dixie Darling
TTITLE11=Arizona Smoke Revue - Columbus Georgia
TTITLE12=Arizona Smoke Revue - Banks Of The Ohio
TTITLE13=Blackwater Boys - Some Of Shelly's Blues
TTITLE14=Blackwater Boys - Blue Moon Of Kentucky
TTITLE15=Arizona Smoke Revue - Old Groundhog
EXTD=
EXTT0=
EXTT1=
EXTT2=
EXTT3=
EXTT4=
EXTT5=
EXTT6=
EXTT7=
EXTT8=
EXTT9=
EXTT10=
EXTT11=
EXTT12=
EXTT13=
EXTT14=
EXTT15=
PLAYORDER=
